<svg xmlns="http://www.w3.org/2000/svg" viewBox="0 0 1500 2100">
    <defs>
        <mask id="main_canvas_zone">
            <rect x="90" y="90" width="1320" height="1920" fill="white" />
        </mask>
    </defs>

    <rect x="0" y="0" width="1500" height="2100" fill="#FAFAFA00" />

    <g mask="url(#main_canvas_zone)">
    <path d="M 400,400.00 c 72.00,212.00,-235.00,356.00,-250.00,1050.00" stroke="#FFDD0044" stroke-width="8" fill="none" />
<path d="M 420,373.87 c 77.00,225.00,-250.00,343.00,-229.00,1128.40" stroke="#FFDD0044" stroke-width="8" fill="none" />
<path d="M 440,348.02 c 82.00,238.00,-265.00,330.00,-208.00,1205.93" stroke="#FFDD0044" stroke-width="8" fill="none" />
<path d="M 460,322.75 c 87.00,251.00,-280.00,317.00,-187.00,1281.76" stroke="#FFDD0044" stroke-width="8" fill="none" />
<path d="M 480,298.32 c 92.00,264.00,-295.00,304.00,-166.00,1355.05" stroke="#FFDD0044" stroke-width="8" fill="none" />
<path d="M 500,275.00 c 97.00,277.00,-310.00,291.00,-145.00,1425.00" stroke="#FFDD0044" stroke-width="8" fill="none" />
<path d="M 520,253.05 c 102.00,290.00,-325.00,278.00,-124.00,1490.84" stroke="#FFDD0044" stroke-width="8" fill="none" />
<path d="M 540,232.72 c 107.00,303.00,-340.00,265.00,-103.00,1551.85" stroke="#FFDD0044" stroke-width="8" fill="none" />
<path d="M 560,214.21 c 112.00,316.00,-355.00,252.00,-82.00,1607.36" stroke="#FFDD0044" stroke-width="8" fill="none" />
<path d="M 580,197.75 c 117.00,329.00,-370.00,239.00,-61.00,1656.76" stroke="#FFDD0044" stroke-width="8" fill="none" />
<path d="M 600,183.49 c 122.00,342.00,-385.00,226.00,-40.00,1699.52" stroke="#FFDD0044" stroke-width="8" fill="none" />
<path d="M 620,171.61 c 127.00,355.00,-400.00,213.00,-19.00,1735.16" stroke="#FFDD0044" stroke-width="8" fill="none" />
<path d="M 640,162.24 c 132.00,368.00,-415.00,200.00,2.00,1763.29" stroke="#FFDD0044" stroke-width="8" fill="none" />
<path d="M 660,155.46 c 137.00,381.00,-430.00,187.00,23.00,1783.61" stroke="#FFDD0044" stroke-width="8" fill="none" />
<path d="M 680,151.37 c 142.00,394.00,-445.00,174.00,44.00,1795.89" stroke="#FFDD0044" stroke-width="8" fill="none" />
<path d="M 700,150.00 c 147.00,407.00,-460.00,161.00,65.00,1800.00" stroke="#FFDD0044" stroke-width="8" fill="none" />
<path d="M 720,151.37 c 152.00,420.00,-475.00,148.00,86.00,1795.89" stroke="#FFDD0044" stroke-width="8" fill="none" />
<path d="M 740,155.46 c 157.00,433.00,-490.00,135.00,107.00,1783.61" stroke="#FFDD0044" stroke-width="8" fill="none" />
<path d="M 760,162.24 c 162.00,446.00,-505.00,122.00,128.00,1763.29" stroke="#FFDD0044" stroke-width="8" fill="none" />
<path d="M 780,171.61 c 167.00,459.00,-520.00,109.00,149.00,1735.16" stroke="#FFDD0044" stroke-width="8" fill="none" />
<path d="M 800,183.49 c 172.00,472.00,-535.00,96.00,170.00,1699.52" stroke="#FFDD0044" stroke-width="8" fill="none" />
<path d="M 820,197.75 c 177.00,485.00,-550.00,83.00,191.00,1656.76" stroke="#FFDD0044" stroke-width="8" fill="none" />
<path d="M 840,214.21 c 182.00,498.00,-565.00,70.00,212.00,1607.36" stroke="#FFDD0044" stroke-width="8" fill="none" />
<path d="M 860,232.72 c 187.00,511.00,-580.00,57.00,233.00,1551.85" stroke="#FFDD0044" stroke-width="8" fill="none" />
<path d="M 880,253.05 c 192.00,524.00,-595.00,44.00,254.00,1490.84" stroke="#FFDD0044" stroke-width="8" fill="none" />
<path d="M 900,275.00 c 197.00,537.00,-610.00,31.00,275.00,1425.00" stroke="#FFDD0044" stroke-width="8" fill="none" />
<path d="M 920,298.32 c 202.00,550.00,-625.00,18.00,296.00,1355.05" stroke="#FFDD0044" stroke-width="8" fill="none" />
<path d="M 940,322.75 c 207.00,563.00,-640.00,5.00,317.00,1281.76" stroke="#FFDD0044" stroke-width="8" fill="none" />
<path d="M 960,348.02 c 212.00,576.00,-655.00,-8.00,338.00,1205.93" stroke="#FFDD0044" stroke-width="8" fill="none" />
<path d="M 980,373.87 c 217.00,589.00,-670.00,-21.00,359.00,1128.40" stroke="#FFDD0044" stroke-width="8" fill="none" />
<path d="M 1000,400.00 c 222.00,602.00,-685.00,-34.00,380.00,1050.00" stroke="#FFDD0044" stroke-width="8" fill="none" />

    </g>
</svg>
